<svg id="Layer_1" data-name="Layer 1" xmlns="http://www.w3.org/2000/svg" viewBox="0 0 300 300"><defs><style>.cls-1{fill:#015198;}.cls-2{fill:#0071b7;}.cls-3{fill:#0093dd;}.cls-4{fill:#76c5f0;}</style></defs><path class="cls-1" d="M180.34,15.31V51.4H119.66V15.31a138.66,138.66,0,0,1,60.68,0Z"/><path class="cls-2" d="M113.59,16.81V51.4H53.38A137.49,137.49,0,0,1,113.59,16.81Z"/><rect class="cls-2" x="55.95" y="55.95" width="57.65" height="57.65"/><path class="cls-3" d="M49.88,56v57.64H16.81A137.62,137.62,0,0,1,49,56Z"/><rect class="cls-3" x="55.95" y="119.66" width="57.65" height="57.65"/><rect class="cls-2" x="119.66" y="119.66" width="57.65" height="57.65"/><path class="cls-3" d="M49.88,119.66v57.65H14.65a139,139,0,0,1,.66-57.65Z"/><rect class="cls-4" x="55.95" y="183.37" width="57.65" height="57.65"/><rect class="cls-3" x="119.66" y="183.37" width="57.65" height="57.65"/><path class="cls-1" d="M288.05,150a138.9,138.9,0,0,1-2.7,27.31H248.6V119.66h36.09A137.82,137.82,0,0,1,288.05,150Z"/><path class="cls-3" d="M284,183.37A137.58,137.58,0,0,1,253.79,241H248.6V183.37Z"/><path class="cls-4" d="M113.59,245.57v37.62A137.62,137.62,0,0,1,56,251.05v-5.48Z"/><path class="cls-3" d="M177.31,245.57v39.78a139,139,0,0,1-57.65-.66V245.57Z"/><path class="cls-4" d="M49.88,183.37V241H46.21A137.58,137.58,0,0,1,16,183.37Z"/><path class="cls-1" d="M245.57,50.38v1H184.89v-35A137.75,137.75,0,0,1,245.57,50.38Z"/></svg>